<svg id="Group_76" data-name="Group 76" xmlns="http://www.w3.org/2000/svg" width="25.128" height="24.783" viewBox="0 0 25.128 24.783">
  <path id="Path_20" data-name="Path 20" d="M434.794,21.082a2.68,2.68,0,0,1-2.9,2.682,2.688,2.688,0,1,1,2.9-2.682Zm-5.546,22.1v-17.3h5.381v17.3Z" transform="translate(-429.1 -18.4)" fill="#fff"/>
  <path id="Path_21" data-name="Path 21" d="M481.448,67.508c0-2.156-.066-3.966-.148-5.513h4.674l.247,2.4h.1a6.193,6.193,0,0,1,5.332-2.8c3.538,0,6.187,2.37,6.187,7.454V79.274h-5.381V69.7c0-2.222-.773-3.752-2.715-3.752a2.968,2.968,0,0,0-2.765,2.008A3.725,3.725,0,0,0,486.8,69.3v9.972h-5.381V67.508Z" transform="translate(-472.71 -54.491)" fill="#fff"/>
</svg>
