<svg id="Group_77" data-name="Group 77" xmlns="http://www.w3.org/2000/svg" width="30.641" height="30.641" viewBox="0 0 30.641 30.641">
  <path id="Path_16" data-name="Path 16" d="M692.02,0c-4.163,0-4.69.016-6.319.1a11.46,11.46,0,0,0-3.719.708,7.759,7.759,0,0,0-4.476,4.476A11.04,11.04,0,0,0,676.8,9c-.082,1.629-.1,2.156-.1,6.319s.017,4.69.1,6.319a11.465,11.465,0,0,0,.708,3.719,7.586,7.586,0,0,0,1.761,2.715,7.341,7.341,0,0,0,2.715,1.761,11.037,11.037,0,0,0,3.719.708c1.629.082,2.156.1,6.319.1s4.69-.016,6.319-.1a11.46,11.46,0,0,0,3.719-.708,7.583,7.583,0,0,0,2.715-1.761,7.341,7.341,0,0,0,1.761-2.715,11.037,11.037,0,0,0,.707-3.719c.082-1.629.1-2.156.1-6.319s-.016-4.69-.1-6.319a11.464,11.464,0,0,0-.707-3.719A7.759,7.759,0,0,0,702.058.806,11.037,11.037,0,0,0,698.339.1C696.694.016,696.184,0,692.02,0Zm0,2.765c4.1,0,4.575.016,6.187.082a8.331,8.331,0,0,1,2.847.527,4.681,4.681,0,0,1,1.761,1.152,4.812,4.812,0,0,1,1.152,1.761,8.329,8.329,0,0,1,.527,2.847c.066,1.613.082,2.106.082,6.187s-.016,4.575-.082,6.187a8.329,8.329,0,0,1-.527,2.847,5.14,5.14,0,0,1-2.913,2.913,8.331,8.331,0,0,1-2.847.527c-1.613.066-2.106.082-6.187.082s-4.575-.016-6.187-.082a8.331,8.331,0,0,1-2.847-.527,5.141,5.141,0,0,1-2.913-2.913,8.327,8.327,0,0,1-.527-2.847c-.066-1.613-.082-2.106-.082-6.187s.016-4.575.082-6.187a8.327,8.327,0,0,1,.527-2.847,4.68,4.68,0,0,1,1.152-1.761,4.813,4.813,0,0,1,1.761-1.152,8.331,8.331,0,0,1,2.847-.527C687.429,2.781,687.923,2.765,692.02,2.765Z" transform="translate(-676.7 0)" fill="#fff" fill-rule="evenodd"/>
  <path id="Path_17" data-name="Path 17" d="M729.782,48.091a5.118,5.118,0,0,1,0-10.235h0a5.118,5.118,0,0,1,0,10.235Zm0-12.984a7.882,7.882,0,1,0,0,15.765h0a7.882,7.882,0,0,0,0-15.765Zm10.17-.148a1.86,1.86,0,1,1-1.86-1.86,1.868,1.868,0,0,1,1.86,1.86" transform="translate(-714.462 -27.653)" fill="#fff" fill-rule="evenodd"/>
</svg>
