<svg id="Logo__x2014__FIXED_2_" xmlns="http://www.w3.org/2000/svg" width="30.789" height="24.979" viewBox="0 0 30.789 24.979">
  <path id="Path_19" data-name="Path 19" d="M168.809,42.18c11.6,0,17.953-9.627,17.953-17.953,0-.263,0-.543-.016-.806a12.657,12.657,0,0,0,3.143-3.275,12.8,12.8,0,0,1-3.637,1,6.378,6.378,0,0,0,2.781-3.489,12.47,12.47,0,0,1-4.015,1.53,6.321,6.321,0,0,0-10.927,4.328,7.1,7.1,0,0,0,.165,1.448,17.959,17.959,0,0,1-13.017-6.6,6.309,6.309,0,0,0,1.958,8.425,6.26,6.26,0,0,1-2.863-.79v.082a6.306,6.306,0,0,0,5.052,6.187,6.138,6.138,0,0,1-1.662.214,5.567,5.567,0,0,1-1.185-.115,6.308,6.308,0,0,0,5.891,4.377,12.7,12.7,0,0,1-7.833,2.715,11.264,11.264,0,0,1-1.5-.082,18.481,18.481,0,0,0,9.709,2.8" transform="translate(-159.1 -17.2)" fill="#fff"/>
</svg>
